<svg width="26" height="12" viewBox="0 0 26 12" fill="none" xmlns="http://www.w3.org/2000/svg">
<path d="M4.07027 8.44334V6.44874H6.04865V5.10279H4.07027V3.12442H2.72432V5.10279H0.72973V6.44874H2.72432V8.44334H4.07027ZM11.9508 11.3785C14.3346 11.3785 15.9563 10.2271 15.9563 8.4109C15.9563 6.95144 15.113 5.76766 13.0535 5.63793C14.4806 5.49198 15.5184 4.48658 15.5184 3.15685C15.5184 1.68117 14.4319 0.189281 11.9184 0.189281C9.82652 0.189281 8.35085 1.37306 7.86436 2.84874L9.32382 4.09739C9.55085 2.68658 10.54 1.94063 11.8535 1.94063C13.0698 1.94063 13.6373 2.65415 13.6373 3.56225C13.6373 4.55144 12.9887 5.02171 11.8211 5.02171H10.0373V6.52982H11.7563C13.1022 6.52982 14.0103 6.98388 14.0103 8.10279C14.0103 9.05955 13.2968 9.64334 12.0319 9.64334C10.1995 9.64334 9.45355 8.65415 9.12922 7.11361L7.66976 8.4109C8.07517 10.0325 9.55085 11.3785 11.9508 11.3785ZM19.5276 11.2163V8.68658L20.7114 7.51901L23.0141 11.2163H25.1384L21.9438 6.43252L25.1384 3.31901H22.9168L20.7601 5.42712L19.4628 6.85415L19.5276 5.32982V0.351443H17.7114V11.2163H19.5276Z" fill="#195FC6"/>
</svg>
